<svg width="20" height="20" viewBox="0 0 20 20" fill="none" xmlns="http://www.w3.org/2000/svg">
<path d="M3.75 17.5C3.41667 17.5 3.125 17.375 2.875 17.125C2.625 16.875 2.5 16.5833 2.5 16.25V5.35417C2.5 5.14583 2.52083 4.96875 2.5625 4.82292C2.60417 4.67708 2.68056 4.54167 2.79167 4.41667L3.95833 2.83333C4.06944 2.70833 4.19792 2.62153 4.34375 2.57292C4.48958 2.52431 4.65972 2.5 4.85417 2.5H15.1458C15.3403 2.5 15.5069 2.52431 15.6458 2.57292C15.7847 2.62153 15.9097 2.70833 16.0208 2.83333L17.2083 4.41667C17.3194 4.54167 17.3958 4.67708 17.4375 4.82292C17.4792 4.96875 17.5 5.14583 17.5 5.35417V16.25C17.5 16.5833 17.375 16.875 17.125 17.125C16.875 17.375 16.5833 17.5 16.25 17.5H3.75ZM4.10417 4.70833H15.875L15.125 3.75H4.85417L4.10417 4.70833ZM3.75 5.95833V16.25H16.25V5.95833H3.75ZM10 14.375L13.25 11.125L12.4167 10.2917L10.625 12.0833V7.89583H9.375V12.0833L7.58333 10.2917L6.75 11.125L10 14.375Z" fill="#181147"/>
</svg>
