<svg width="14" height="14" viewBox="0 0 14 14" fill="none" xmlns="http://www.w3.org/2000/svg">
<path d="M1.375 13.75C1.075 13.75 0.8125 13.6375 0.5875 13.4125C0.3625 13.1875 0.25 12.925 0.25 12.625V2.81875C0.25 2.63125 0.26875 2.47187 0.30625 2.34062C0.34375 2.20937 0.4125 2.0875 0.5125 1.975L1.5625 0.55C1.6625 0.4375 1.77813 0.359375 1.90938 0.315625C2.04063 0.271875 2.19375 0.25 2.36875 0.25H11.6312C11.8062 0.25 11.9562 0.271875 12.0812 0.315625C12.2063 0.359375 12.3188 0.4375 12.4188 0.55L13.4875 1.975C13.5875 2.0875 13.6562 2.20937 13.6937 2.34062C13.7312 2.47187 13.75 2.63125 13.75 2.81875V12.625C13.75 12.925 13.6375 13.1875 13.4125 13.4125C13.1875 13.6375 12.925 13.75 12.625 13.75H1.375ZM1.69375 2.2375H12.2875L11.6125 1.375H2.36875L1.69375 2.2375ZM1.375 3.3625V12.625H12.625V3.3625H1.375ZM7 10.9375L9.925 8.0125L9.175 7.2625L7.5625 8.875V5.10625H6.4375V8.875L4.825 7.2625L4.075 8.0125L7 10.9375Z" fill="#676767"/>
</svg>
