<svg width="18" height="18" viewBox="0 0 18 18" fill="none" xmlns="http://www.w3.org/2000/svg">
<path d="M6.97925 12.1042H11.0001V11.0625H8.41675L11.0001 8.14583V7.125H6.97925V8.16667H9.60425L6.97925 11.125V12.1042ZM8.97925 17.2917C7.95147 17.2917 6.98272 17.0972 6.073 16.7083C5.16328 16.3194 4.37161 15.7882 3.698 15.1146C3.02439 14.441 2.48966 13.6493 2.09383 12.7396C1.698 11.8299 1.50008 10.856 1.50008 9.81806C1.50008 8.7801 1.698 7.80788 2.09383 6.9014C2.48966 5.99491 3.02439 5.20139 3.698 4.52083C4.37161 3.84028 5.16328 3.30556 6.073 2.91667C6.98272 2.52778 7.95147 2.33333 8.97925 2.33333C10.007 2.33333 10.9758 2.52778 11.8855 2.91667C12.7952 3.30556 13.5904 3.84028 14.2709 4.52083C14.9515 5.20139 15.4862 5.99491 15.8751 6.9014C16.264 7.80788 16.4584 8.7801 16.4584 9.81806C16.4584 10.856 16.264 11.8299 15.8751 12.7396C15.4862 13.6493 14.9515 14.441 14.2709 15.1146C13.5904 15.7882 12.7952 16.3194 11.8855 16.7083C10.9758 17.0972 10.007 17.2917 8.97925 17.2917ZM3.45841 0.9375L4.33342 1.8125L0.916748 5.10417L0.041748 4.22917L3.45841 0.9375ZM14.5001 0.9375L17.9167 4.22917L17.0417 5.10417L13.6251 1.8125L14.5001 0.9375ZM8.98014 16.0417C10.7157 16.0417 12.1876 15.4372 13.3959 14.2283C14.6042 13.0193 15.2084 11.5471 15.2084 9.8116C15.2084 8.07609 14.6039 6.60417 13.395 5.39583C12.1861 4.1875 10.7139 3.58333 8.97835 3.58333C7.24284 3.58333 5.77092 4.1878 4.56258 5.39673C3.35425 6.60566 2.75008 8.07788 2.75008 9.8134C2.75008 11.5489 3.35455 13.0208 4.56348 14.2292C5.77241 15.4375 7.24463 16.0417 8.98014 16.0417Z" fill="#181147"/>
</svg>
