<svg width="14" height="14" viewBox="0 0 14 14" fill="none" xmlns="http://www.w3.org/2000/svg">
<path d="M1.375 13.75C1.075 13.75 0.8125 13.6375 0.5875 13.4125C0.3625 13.1875 0.25 12.925 0.25 12.625V2.81875C0.25 2.63125 0.26875 2.47188 0.30625 2.34063C0.34375 2.20938 0.4125 2.0875 0.5125 1.975L1.5625 0.55C1.6625 0.4375 1.77813 0.359375 1.90938 0.315625C2.04063 0.271875 2.19616 0.25 2.37599 0.25H11.624C11.8038 0.25 11.9563 0.271875 12.0813 0.315625C12.2063 0.359375 12.3188 0.4375 12.4188 0.55L13.4875 1.975C13.5875 2.0875 13.6563 2.20938 13.6938 2.34063C13.7313 2.47188 13.75 2.63125 13.75 2.81875V12.625C13.75 12.925 13.6375 13.1875 13.4125 13.4125C13.1875 13.6375 12.925 13.75 12.625 13.75H1.375ZM1.69375 2.2375H12.2875L11.6048 1.375H2.36875L1.69375 2.2375ZM1.375 3.3625V12.625H12.625V3.3625H1.375ZM6.4375 10.9375H7.5625V7.16875L9.175 8.78125L9.925 8.03125L7 5.10625L4.075 8.03125L4.825 8.78125L6.4375 7.16875V10.9375Z" fill="#676767"/>
</svg>
