<svg width="20" height="20" viewBox="0 0 20 20" fill="none" xmlns="http://www.w3.org/2000/svg">
<path d="M4.25 18C3.91667 18 3.625 17.875 3.375 17.625C3.125 17.375 3 17.0833 3 16.75V5.85417C3 5.64583 3.02083 5.46875 3.0625 5.32292C3.10417 5.17708 3.18056 5.04167 3.29167 4.91667L4.45833 3.33333C4.56944 3.20833 4.69792 3.12153 4.84375 3.07292C4.98958 3.02431 5.1624 3 5.36221 3H15.6378C15.8376 3 16.0069 3.02431 16.1458 3.07292C16.2847 3.12153 16.4097 3.20833 16.5208 3.33333L17.7083 4.91667C17.8194 5.04167 17.8958 5.17708 17.9375 5.32292C17.9792 5.46875 18 5.64583 18 5.85417V16.75C18 17.0833 17.875 17.375 17.625 17.625C17.375 17.875 17.0833 18 16.75 18H4.25ZM4.60417 5.20833H16.375L15.6165 4.25H5.35417L4.60417 5.20833ZM4.25 6.45833V16.75H16.75V6.45833H4.25ZM9.875 14.875H11.125V10.6875L12.9167 12.4792L13.75 11.6458L10.5 8.39583L7.25 11.6458L8.08333 12.4792L9.875 10.6875V14.875Z" fill="#181147"/>
</svg>
